<svg width="21" height="17" viewBox="0 0 21 17" fill="none" xmlns="http://www.w3.org/2000/svg">
<path fill-rule="evenodd" clip-rule="evenodd" d="M9.319 16.9106H4.433C1.989 16.9106 0 15.2288 0 13.1606V3.75076C0 1.6826 1.989 0 4.433 0H9.308C11.754 0 13.744 1.6826 13.744 3.75076V4.5388C13.744 4.88885 13.408 5.17294 12.994 5.17294C12.58 5.17294 12.244 4.88885 12.244 4.5388V3.75076C12.244 2.38101 10.927 1.26829 9.308 1.26829H4.433C2.816 1.26829 1.5 2.38101 1.5 3.75076V13.1606C1.5 14.5296 2.816 15.6423 4.433 15.6423H9.319C10.931 15.6423 12.244 14.5329 12.244 13.17V12.3726C12.244 12.0226 12.58 11.7385 12.994 11.7385C13.408 11.7385 13.744 12.0226 13.744 12.3726V13.17C13.744 15.233 11.758 16.9106 9.319 16.9106Z" fill="white"/>
<mask id="mask0_184_8465" style="mask-type:luminance" maskUnits="userSpaceOnUse" x="6" y="7" width="15" height="3">
<path fill-rule="evenodd" clip-rule="evenodd" d="M6.99609 7.82114H20.537V9.08943H6.99609V7.82114Z" fill="white"/>
</mask>
<g mask="url(#mask0_184_8465)">
<path fill-rule="evenodd" clip-rule="evenodd" d="M19.7871 9.08943H7.74609C7.33209 9.08943 6.99609 8.80533 6.99609 8.45528C6.99609 8.10523 7.33209 7.82114 7.74609 7.82114H19.7871C20.2011 7.82114 20.5371 8.10523 20.5371 8.45528C20.5371 8.80533 20.2011 9.08943 19.7871 9.08943Z" fill="white"/>
</g>
<mask id="mask1_184_8465" style="mask-type:luminance" maskUnits="userSpaceOnUse" x="16" y="5" width="5" height="7">
<path fill-rule="evenodd" clip-rule="evenodd" d="M16.1094 5.35663H20.5367V11.555H16.1094V5.35663Z" fill="white"/>
</mask>
<g mask="url(#mask1_184_8465)">
<path fill-rule="evenodd" clip-rule="evenodd" d="M16.8591 11.555C16.6671 11.555 16.4741 11.4933 16.3281 11.3681C16.0361 11.1195 16.0371 10.7188 16.3301 10.4719L18.7241 8.45528L16.3301 6.43954C16.0371 6.19265 16.0351 5.79186 16.3281 5.54328C16.6201 5.29469 17.0941 5.29469 17.3881 5.54159L20.3161 8.0063C20.4581 8.12468 20.5371 8.28702 20.5371 8.45528C20.5371 8.62354 20.4581 8.78588 20.3161 8.90425L17.3881 11.3698C17.2421 11.4933 17.0501 11.555 16.8591 11.555Z" fill="white"/>
</g>
</svg>
